<svg xmlns="http://w3.org/2000/svg">

    <symbol id="icon-home" width="100%" height="100%" viewBox="0 0 24 24"  version="1.1" xmlns="http://www.w3.org/2000/svg" xmlns:xlink="http://www.w3.org/1999/xlink" xml:space="preserve" xmlns:serif="http://www.serif.com/" fill="none" stroke="currentColor" stroke-width="0.3" stroke-linecap="round" stroke-linejoin="round">
        <path d="M16.815,13.628L13.111,13.628"/><circle cx="10.308" cy="15.629" r="0.222"/><rect x="7.926" y="12.517" width="1.16" height="2.568"/><rect x="7.926" y="16.221" width="1.16" height="2.593"/><rect x="9.086" y="12.517" width="1.16" height="2.568"/><rect x="9.086" y="16.221" width="1.16" height="2.593"/><path d="M14.963,11.776L14.963,15.48"/><path d="M19.037,19.603L19.037,21.406L4.963,21.406L4.963,19.609"/><path d="M4.965,18.132L4.963,10.425L12,3.998L19.037,10.431L19.037,18.135"/><path d="M4.294,11.036L3.481,10.295L12,2.594L20.519,10.295L19.778,11.108L12,3.998L4.294,11.036Z"/><rect x="13.111" y="11.776" width="3.704" height="3.704"/><rect x="12.741" y="15.533" width="4.444" height="0.635"/><path d="M6.444,20.295L5.704,20.295L5.704,21.406L4.963,21.406L4.963,19.739L6.444,19.739L6.444,20.295ZM11.63,19.739L19.037,19.739L19.037,21.406L12.37,21.406L12.37,20.295L11.63,20.295L11.63,19.739Z"/><rect x="14.963" y="3.628" width="2.222" height="0.741"/><path d="M15.333,5.607L15.333,4.369L16.815,4.369L16.815,6.947L15.333,5.607Z"/><rect x="7.185" y="11.776" width="3.704" height="7.407"/><rect x="6.444" y="19.184" width="5.185" height="1.111"/><rect x="5.704" y="20.295" width="6.667" height="1.111"/><path d="M19.018,21.396C19.497,20.427 20.068,19.505 19.92,18.486C19.521,17.491 19.639,16.745 20.197,16.221C20.672,17.16 20.809,18.004 19.92,18.486"/><path d="M4.982,21.396C4.503,20.427 3.932,19.505 4.08,18.486C4.479,17.491 4.361,16.745 3.803,16.221C3.328,17.16 3.191,18.004 4.08,18.486"/><path d="M19.018,21.396C19.49,20.521 19.443,20.264 19.332,19.774C18.798,19.602 18.275,18.754 18.636,17.81C18.916,17.939 19.678,18.587 19.332,19.774"/><path d="M4.982,21.396C4.51,20.521 4.557,20.264 4.668,19.774C5.202,19.602 5.725,18.754 5.364,17.81C5.084,17.939 4.322,18.587 4.668,19.774"/><path d="M19.022,21.402C19.498,20.349 19.88,20.194 20.25,19.804C20.913,19.968 21.91,19.494 22,18.394C21.632,18.345 20.48,18.487 20.25,19.804"/><path d="M4.978,21.402C4.502,20.349 4.12,20.194 3.75,19.804C3.087,19.968 2.09,19.494 2,18.394C2.368,18.345 3.52,18.487 3.75,19.804"/><path d="M19.035,21.389C19.169,21.069 19.39,21.076 19.549,21.109C19.876,21.474 20.714,21.586 21.302,20.957C21.101,20.78 20.328,20.405 19.549,21.109"/><path d="M4.965,21.389C4.831,21.069 4.61,21.076 4.451,21.109C4.124,21.474 3.286,21.586 2.698,20.957C2.899,20.78 3.672,20.405 4.451,21.109"/>
    </symbol>

    <symbol id="icon-herbarium" width="100%" height="100%" viewBox="0 0 24 24"  version="1.1" xmlns="http://www.w3.org/2000/svg" xmlns:xlink="http://www.w3.org/1999/xlink" xml:space="preserve" xmlns:serif="http://www.serif.com/" fill="none" stroke="currentColor" stroke-width="0.6" stroke-linecap="round" stroke-linejoin="round">
        <path d="M17.845,2.8L17.845,21.2C17.845,21.642 17.486,22 17.045,22L2.65,22C2.209,22 1.85,21.642 1.85,21.2L1.85,2.8C1.85,2.358 2.209,2 2.65,2L17.045,2C17.486,2 17.845,2.358 17.845,2.8Z"/><path d="M3.074,2.06L3.074,22"/><path d="M17.845,2.812L17.845,21.188C17.845,21.636 17.481,22 17.032,22L4.551,22L4.551,2L17.032,2C17.481,2 17.845,2.364 17.845,2.812Z"/><path d="M17.845,16.177C18.71,15.016 19.442,13.85 19.368,12.496C18.742,10.653 19.135,9.371 20.393,8.582C21.186,10.343 21.299,11.858 19.368,12.496"/><path d="M17.845,16.025C18.097,15.5 18.102,15.117 18.098,14.575C18.01,14.523 17.845,14.382 17.845,14.382L17.845,11.104C17.845,11.104 18.97,12.887 18.098,14.575"/><path d="M17.845,15.985C18.199,15.701 18.52,15.517 18.85,15.247C19.916,15.702 21.708,15.123 22.15,13.216C21.547,13.037 19.583,12.996 18.85,15.247"/><path d="M17.845,18.507C18.951,18.868 20.447,18.472 20.932,16.858C20.404,16.603 18.847,16.255 17.845,17.46"/><path d="M6.029,4.88L6.029,4.276L6.647,4.276L6.029,4.88ZM7.704,4.276L14.322,4.276L16.368,6.274L16.368,17.681L14.215,19.784L7.688,19.784L6.029,18.164L6.029,5.912L7.704,4.276ZM15.379,4.276L16.368,4.276L16.368,5.241L15.379,4.276ZM16.368,18.714L16.368,19.784L15.272,19.784L16.368,18.714ZM6.631,19.784L6.029,19.784L6.029,19.196L6.631,19.784Z"/><path d="M14.971,19.046L11.198,19.046L11.198,16.83L15.629,16.83L15.629,18.403L14.971,19.046Z"/><path d="M8.112,20.199L7.595,20.727L5.135,18.323L5.651,17.795L8.112,20.199ZM13.791,20.199L16.483,17.569L16.999,18.097L14.307,20.727L13.791,20.199ZM8.112,3.877L5.651,6.281L5.135,5.753L7.595,3.349L8.112,3.877ZM13.915,3.877L14.431,3.349L17.106,5.963L16.59,6.491L13.915,3.877Z"/><path d="M11.688,9.262C11.529,9.784 11.369,10.322 11.209,10.865C11.385,10.688 11.591,10.532 11.786,10.403L11.768,10.324C11.752,10.248 11.762,10.198 11.851,10.184C11.931,10.172 11.56,9.868 11.769,9.652C11.978,9.438 12.105,9.722 12.128,9.76C12.29,9.276 12.617,9.407 12.615,9.696C12.725,9.693 12.834,9.688 12.911,9.782C12.988,9.875 12.977,9.955 12.918,10.05C12.938,10.123 12.971,10.19 12.921,10.257C12.88,10.311 12.815,10.326 12.752,10.34C12.868,10.806 12.509,10.917 12.284,10.67C12.271,10.695 12.148,10.921 11.968,10.831C11.851,10.773 11.84,10.676 11.805,10.495C11.562,10.682 11.282,10.909 11.129,11.138C10.938,11.787 10.746,12.44 10.555,13.081C10.733,12.867 10.923,12.69 10.991,12.573C11.419,11.83 12.018,11.85 12.805,11.99C12.205,12.202 12.194,12.858 10.994,12.798C10.936,12.836 10.666,13.069 10.476,13.345L10.343,13.781C10.108,14.554 9.873,15.299 9.639,15.981C9.824,15.776 9.998,15.647 10.149,15.562L10.13,15.565C10.13,15.565 10.919,14.642 11.839,13.587C11.783,13.13 11.922,12.784 12.101,12.617C12.019,12.869 11.926,13.177 11.98,13.426C12.555,12.768 13.167,12.076 13.661,11.536C13.61,11.457 13.598,11.328 13.618,11.244C13.647,11.12 13.722,11.051 13.823,10.984C13.789,10.969 13.532,10.857 13.455,10.697C13.425,10.636 13.506,10.593 13.505,10.526C13.505,10.47 13.4,10.253 13.685,10.21C13.751,10.2 13.82,10.226 13.878,10.254C13.975,10.3 14.032,10.402 14.089,10.488C14.065,10.399 13.992,10.235 14.168,10.056C14.346,9.875 14.523,9.927 14.539,9.943C14.597,10.003 14.631,10.116 14.653,10.194C14.672,10.262 14.676,10.327 14.68,10.397C15.156,10.105 15.503,10.676 15.06,10.921C15.088,10.968 15.291,11.227 15.162,11.447C15.132,11.498 14.917,11.707 14.645,11.358C14.664,11.4 14.762,11.551 14.684,11.699C14.602,11.856 14.367,11.82 14.264,11.491C14.246,11.501 13.938,11.698 13.742,11.605C13.351,12.046 12.898,12.573 12.456,13.096C12.796,12.923 13.314,12.789 13.568,12.792C13.495,12.714 13.403,12.603 13.493,12.505C13.57,12.42 13.663,12.46 13.746,12.507C13.776,12.443 13.802,12.372 13.849,12.316C14.04,12.09 14.164,12.273 14.224,12.276C14.301,12.28 14.499,12.253 14.488,12.574C14.55,12.594 14.613,12.607 14.672,12.638C14.975,12.8 14.805,12.906 14.829,12.974C14.864,13.072 15.078,13.26 14.709,13.397C14.703,13.565 14.76,13.688 14.649,13.742C14.541,13.795 14.448,13.752 14.356,13.689C14.321,13.733 14.146,14.099 13.839,13.903C13.813,13.887 13.8,13.857 13.777,13.839C13.759,13.826 13.535,13.811 13.47,13.653C13.427,13.551 13.446,13.461 13.503,13.371C13.465,13.315 13.415,13.261 13.439,13.19C13.482,13.066 13.547,12.972 13.585,12.901C13.344,12.825 12.814,13.053 12.236,13.357L12.05,13.577C12.188,13.544 12.331,13.543 12.397,13.518C12.759,13.381 12.992,13.6 13.267,13.932C12.975,13.803 12.8,14.053 12.34,13.607C12.305,13.6 12.134,13.599 11.99,13.649C11.324,14.443 10.747,15.145 10.533,15.405C10.611,15.382 10.667,15.366 10.695,15.341C12.101,14.114 13.257,14.55 14.414,15.299C13.246,15.742 12.055,16.42 10.788,15.48C10.562,15.506 10.002,15.551 9.463,16.48C9.41,16.63 9.356,16.776 9.303,16.917C9.247,17.106 9.167,17.315 9.054,17.546L8.858,17.462L8.87,17.441L8.853,17.431C8.985,17.106 9.115,16.772 9.244,16.429C9.326,15.88 9.145,15.553 9.059,15.388C7.191,14.719 7.096,13.07 6.767,11.599C8.356,12.282 9.611,13.168 9.27,15.392C9.256,15.485 9.365,15.671 9.402,16C9.707,15.16 10,14.28 10.282,13.394C10.346,12.772 10.102,12.438 10.006,12.318C8.58,11.69 8.763,10.901 7.971,10.248C9.061,10.349 10.597,11.243 10.251,12.398C10.228,12.477 10.364,12.637 10.398,13.028C10.601,12.382 10.798,11.737 10.99,11.103C10.973,10.77 10.804,10.347 10.684,10.039C10.555,10.169 10.501,10.388 10.343,10.442C10.18,10.497 10.131,10.332 10.111,10.211C10.081,10.216 9.805,10.26 9.757,10.074C9.699,9.849 9.857,9.751 9.933,9.676C9.907,9.661 9.69,9.529 9.768,9.338C9.845,9.147 10.014,9.2 10.192,9.171C10.193,9.101 10.186,9.012 10.246,8.962C10.31,8.909 10.377,8.954 10.447,8.974C10.519,8.994 10.54,8.97 10.591,8.925C10.689,8.836 10.823,9.03 10.848,9.197C10.88,9.409 10.832,9.498 10.808,9.587C11.113,9.404 11.111,9.712 11.088,9.782C11.033,9.948 10.746,9.991 10.741,9.992C10.867,10.238 10.996,10.543 11.067,10.849C11.184,10.461 11.299,10.079 11.411,9.705C11.442,9.443 11.416,9.223 11.362,9.014C11.229,8.951 10.98,8.716 10.952,8.692C10.929,8.672 10.747,8.513 10.831,8.338C10.939,8.117 10.899,8.05 11.063,8.041C11.128,8.037 11.234,7.904 11.303,7.968C11.775,8.415 11.399,8.572 11.441,9.017C11.439,9.019 11.437,9.021 11.435,9.023C11.468,9.129 11.504,9.255 11.511,9.375C11.628,8.989 11.742,8.613 11.855,8.252C11.831,8.26 11.807,8.272 11.779,8.29C11.395,7.836 11.11,7.48 11.608,7.385C11.646,7.196 11.591,7.149 11.766,7.066C11.787,7.009 11.797,6.913 11.86,6.875C11.898,6.851 11.94,6.85 11.983,6.842C12.079,6.624 12.088,6.585 12.239,6.616C12.299,6.562 12.4,6.416 12.505,6.464C12.595,6.505 12.589,6.597 12.6,6.681C12.831,6.835 12.755,6.902 12.631,7.169C12.702,7.237 12.745,7.294 12.698,7.395C12.615,7.576 12.769,7.627 12.68,7.752C12.576,7.899 12.759,7.954 12.552,8.104C12.246,8.325 12.123,8.266 12.003,8.243C11.918,8.512 11.833,8.787 11.747,9.068C11.832,8.991 11.929,8.927 12.006,8.874C12.017,8.81 12.049,8.724 12.11,8.612C12.147,8.548 12.292,8.324 12.632,8.334C12.634,8.334 12.963,8.425 12.583,8.673C12.642,8.725 12.742,8.773 12.707,8.864C12.702,8.876 12.058,9.213 12.005,8.955C11.892,9.042 11.786,9.141 11.688,9.262Z"/>
    </symbol>


    <symbol id="icon-map" width="100%" height="100%" viewBox="0 0 24 24" version="1.1" xmlns="http://www.w3.org/2000/svg" xmlns:xlink="http://www.w3.org/1999/xlink" xml:space="preserve" xmlns:serif="http://www.serif.com/" fill="none" stroke="currentColor" stroke-width="0.1" stroke-linecap="round" stroke-linejoin="round">
<path d="M11.186,22L11.182,22C11.104,22 11.027,22 10.95,21.999C8.822,21.974 7.108,21.613 6.951,21.159C6.949,21.148 6.948,21.137 6.948,21.126C6.948,20.976 7.545,20.771 7.545,20.831C7.545,21.142 9.175,21.394 11.182,21.394C13.189,21.394 14.818,21.142 14.818,20.831C14.818,20.769 15.41,20.964 15.423,21.109C15.379,21.602 13.498,22 11.186,22Z"/><path d="M12.368,20.299C13.793,20.375 14.818,20.585 14.818,20.831C14.818,21.142 13.189,21.394 11.182,21.394C9.175,21.394 7.545,21.142 7.545,20.831C7.545,20.585 8.571,20.375 9.996,20.299C10.112,20.553 10.599,20.745 11.182,20.745C11.764,20.745 12.251,20.553 12.368,20.299Z"/><path d="M11.806,19.555C11.907,19.909 12.374,20.299 12.368,20.299C12.251,20.553 11.764,20.745 11.182,20.745C10.599,20.745 10.112,20.553 9.996,20.299C9.989,20.299 10.4,19.959 10.539,19.555C10.963,19.584 11.386,19.584 11.806,19.555Z"/><path d="M7.788,18.919C7.714,18.952 7.632,18.97 7.545,18.97C7.211,18.97 6.939,18.698 6.939,18.364C6.939,18.029 7.211,17.758 7.545,17.758C7.88,17.758 8.151,18.029 8.151,18.364L8.15,18.41C12.259,19.986 16.957,18.142 18.86,14.096C20.78,10.012 19.158,5.166 15.245,3.036C15.136,3.145 14.985,3.212 14.818,3.212C14.484,3.212 14.212,2.941 14.212,2.606C14.212,2.272 14.484,2 14.818,2C15.092,2 15.323,2.182 15.398,2.431C19.69,4.674 21.488,9.931 19.408,14.354C17.347,18.737 12.225,20.708 7.788,18.919ZM7.826,18.826C12.214,20.596 17.279,18.646 19.318,14.311C21.375,9.937 19.596,4.738 15.352,2.519C15.328,2.507 15.31,2.485 15.303,2.46C15.24,2.252 15.047,2.1 14.818,2.1C14.539,2.1 14.312,2.327 14.312,2.606C14.312,2.885 14.539,3.112 14.818,3.112C14.957,3.112 15.083,3.056 15.175,2.965C15.206,2.934 15.254,2.927 15.293,2.948C19.252,5.104 20.894,10.007 18.95,14.138C17.025,18.232 12.272,20.098 8.114,18.503C8.073,18.487 8.047,18.446 8.05,18.402L8.051,18.364C8.051,18.084 7.825,17.858 7.545,17.858C7.266,17.858 7.039,18.084 7.039,18.364C7.039,18.643 7.266,18.87 7.545,18.87C7.618,18.87 7.686,18.855 7.748,18.827C7.773,18.817 7.801,18.816 7.826,18.826Z"/><path d="M14.535,3.355C18.47,5.206 20.162,9.903 18.311,13.838C16.461,17.773 11.764,19.465 7.829,17.615C3.894,15.764 2.202,11.067 4.052,7.132C5.903,3.197 10.6,1.505 14.535,3.355ZM14.492,3.446C10.607,1.619 5.97,3.289 4.143,7.174C2.315,11.059 3.986,15.697 7.871,17.524C11.756,19.351 16.394,17.68 18.221,13.795C20.048,9.91 18.377,5.273 14.492,3.446Z"/><path d="M8.268,16.613C9.207,17.055 9.865,17.635 9.737,17.908C9.609,18.181 8.742,18.044 7.803,17.602C6.863,17.161 6.205,16.58 6.333,16.307C6.462,16.035 7.328,16.172 8.268,16.613ZM8.225,16.704C7.675,16.445 7.151,16.292 6.793,16.27C6.684,16.263 6.592,16.268 6.521,16.288C6.475,16.301 6.439,16.318 6.424,16.35C6.409,16.382 6.419,16.42 6.438,16.464C6.468,16.532 6.523,16.606 6.597,16.685C6.843,16.947 7.295,17.253 7.845,17.512C8.395,17.77 8.919,17.923 9.278,17.946C9.387,17.953 9.479,17.948 9.549,17.927C9.596,17.914 9.632,17.898 9.647,17.866C9.662,17.834 9.652,17.796 9.632,17.752C9.603,17.684 9.548,17.61 9.473,17.53C9.227,17.268 8.775,16.963 8.225,16.704Z"/><path d="M14.535,3.355C15.746,3.925 15.226,7.582 13.376,11.517C11.525,15.452 9.039,18.184 7.829,17.615C6.618,17.045 7.137,13.388 8.988,9.453C10.839,5.518 13.324,2.786 14.535,3.355ZM14.492,3.446C14.154,3.287 13.712,3.419 13.209,3.76C11.955,4.61 10.364,6.762 9.079,9.496C7.793,12.23 7.15,14.828 7.295,16.335C7.353,16.941 7.533,17.365 7.871,17.524C8.209,17.683 8.651,17.551 9.155,17.209C10.408,16.36 11.999,14.208 13.285,11.474C14.571,8.74 15.214,6.142 15.069,4.635C15.01,4.029 14.83,3.605 14.492,3.446Z"/><path d="M14.535,3.355C16.956,4.494 17.42,8.613 15.569,12.548C13.719,16.483 10.25,18.753 7.829,17.615C5.407,16.476 4.944,12.356 6.794,8.421C8.645,4.486 12.113,2.216 14.535,3.355ZM14.492,3.446C13.549,3.002 12.443,3.094 11.339,3.604C9.657,4.382 7.984,6.127 6.885,8.464C5.786,10.801 5.508,13.203 5.982,14.994C6.293,16.17 6.928,17.08 7.871,17.524C8.815,17.968 9.921,17.876 11.025,17.366C12.707,16.588 14.38,14.842 15.479,12.506C16.578,10.169 16.855,7.767 16.381,5.975C16.07,4.8 15.436,3.889 14.492,3.446Z"/><path d="M14.535,3.355C17.864,4.921 19.065,9.387 17.215,13.322C15.364,17.257 11.158,19.18 7.829,17.615C4.499,16.049 3.298,11.583 5.149,7.648C7,3.713 11.205,1.789 14.535,3.355ZM14.492,3.446C11.208,1.901 7.065,3.809 5.239,7.69C3.414,11.571 4.587,15.98 7.871,17.524C11.155,19.069 15.299,17.161 17.124,13.28C18.949,9.398 17.776,4.99 14.492,3.446Z"/><path d="M4.052,7.132C5.903,3.197 10.6,1.505 14.535,3.355C18.47,5.206 20.162,9.903 18.311,13.838C16.461,17.773 11.764,19.465 7.829,17.615C3.894,15.764 2.202,11.067 4.052,7.132ZM4.143,7.174C2.316,11.059 3.986,15.697 7.871,17.524C11.756,19.351 16.394,17.68 18.221,13.795C20.048,9.91 18.377,5.273 14.492,3.446C10.607,1.619 5.97,3.289 4.143,7.174Z"/><path d="M4.052,7.132C4.622,5.921 8.279,6.44 12.213,8.291C16.148,10.142 18.881,12.627 18.311,13.838C17.742,15.049 14.085,14.529 10.15,12.679C6.215,10.828 3.483,8.343 4.052,7.132ZM4.143,7.174C3.984,7.513 4.116,7.954 4.457,8.458C5.307,9.711 7.459,11.302 10.193,12.588C12.927,13.874 15.524,14.517 17.032,14.372C17.638,14.313 18.062,14.134 18.221,13.795C18.38,13.457 18.248,13.016 17.906,12.512C17.057,11.258 14.905,9.667 12.171,8.382C9.437,7.096 6.839,6.453 5.332,6.598C4.726,6.656 4.302,6.836 4.143,7.174Z"/><path d="M4.052,7.132C5.191,4.71 9.31,4.247 13.245,6.097C17.18,7.948 19.45,11.416 18.311,13.838C17.173,16.259 13.053,16.723 9.118,14.872C5.183,13.022 2.913,9.553 4.052,7.132ZM4.143,7.174C3.699,8.118 3.791,9.224 4.301,10.328C5.078,12.01 6.824,13.683 9.161,14.782C11.498,15.881 13.9,16.158 15.691,15.684C16.867,15.373 17.777,14.739 18.221,13.795C18.665,12.852 18.573,11.746 18.063,10.642C17.285,8.96 15.539,7.287 13.203,6.188C10.866,5.089 8.464,4.811 6.672,5.285C5.497,5.596 4.586,6.231 4.143,7.174Z"/><path d="M4.052,7.132C5.618,3.802 10.084,2.601 14.019,4.452C17.954,6.303 19.877,10.508 18.311,13.838C16.746,17.168 12.28,18.368 8.345,16.518C4.41,14.667 2.486,10.461 4.052,7.132ZM4.143,7.174C2.598,10.458 4.506,14.602 8.387,16.427C12.268,18.252 16.676,17.079 18.221,13.795C19.765,10.511 17.858,6.368 13.976,4.543C10.095,2.717 5.687,3.89 4.143,7.174Z"/><path d="M14.535,3.355L7.829,17.615"/>
    </symbol>
    

    <symbol id="icon-new-label" width="100%" height="100%" viewBox="0 0 24 24" version="1.1" xmlns="http://www.w3.org/2000/svg" xmlns:xlink="http://www.w3.org/1999/xlink" xml:space="preserve" xmlns:serif="http://www.serif.com/" fill="none" stroke="currentColor" stroke-width="0.3" stroke-linecap="round" stroke-linejoin="round">
<path d="M7.57,6.999C7.504,6.823 7.276,6.673 7.055,6.765C6.745,6.894 7.181,7.776 7.689,7.308C8.081,6.945 7.8,5.982 7.294,4.667C6.556,2.75 5.007,1.424 4.023,2.251C3.466,2.718 3.682,4.375 5.435,5.892C5.452,5.907 5.471,5.902 5.489,5.918L5.903,5.701C5.903,5.701 5.818,5.647 5.796,5.628C5.36,5.26 4.918,4.79 4.549,4.1C3.763,2.629 4.498,2.187 5.364,2.763C6.11,3.259 7,5.105 7.213,5.729C7.46,6.451 7.559,6.9 7.57,6.999Z"/><path d="M7.842,6.422C8.281,6.533 8.606,6.931 8.606,7.404C8.606,7.963 8.152,8.416 7.593,8.416C7.034,8.416 6.581,7.963 6.581,7.404C6.581,6.902 6.947,6.484 7.427,6.405C7.52,6.732 7.563,6.936 7.57,6.999C7.504,6.823 7.276,6.673 7.055,6.765C6.745,6.894 7.181,7.776 7.689,7.308C7.874,7.137 7.909,6.833 7.842,6.422Z"/><path d="M14.392,12.504L8.46,15.726"/><path d="M13.426,10.725L7.494,13.946"/><path d="M12.46,8.945L6.527,12.166"/><circle cx="16.653" cy="16.6" r="3.375"/><path d="M16.372,16.882L14.966,16.882L14.966,16.319L16.372,16.319L16.372,14.913L16.934,14.913L16.934,16.319L18.341,16.319L18.341,16.882L16.934,16.882L16.934,18.288L16.372,18.288L16.372,16.882Z"/><path d="M5.474,5.941L5.912,5.704"/><path d="M5.912,5.704L8.872,4.096L12.607,5.962L16.552,13.227"/><path d="M14.638,19.332L9.724,22L3.655,10.822L4.126,6.673L5.474,5.941"/><path d="M7.227,6.739C7.167,6.68 7.103,6.623 7.035,6.567"/><path d="M6.781,6.81C6.889,6.869 6.955,6.902 6.955,6.902"/><path d="M15.818,11.875C16.705,10.105 17.763,8.422 17.49,6.562C16.75,4.743 16.969,3.382 18.003,2.424C18.884,4.139 19.137,5.681 17.49,6.562"/><path d="M15.818,11.875C16.692,10.276 16.605,9.808 16.399,8.913C15.41,8.6 14.441,7.051 15.11,5.326C15.628,5.563 17.04,6.746 16.399,8.913"/><path d="M15.825,11.886C16.707,9.964 17.416,9.68 18.1,8.968C19.33,9.268 21.177,8.402 21.345,6.393C20.663,6.304 18.527,6.563 18.1,8.968"/><path d="M15.848,11.862C16.098,11.277 16.506,11.29 16.803,11.351C17.407,12.017 18.962,12.222 20.052,11.073C19.678,10.751 18.245,10.065 16.803,11.351"/>    </symbol>

    <symbol id="icon-gps" width="100%" height="100%" viewBox="0 0 24 24" version="1.1" xmlns="http://www.w3.org/2000/svg" xmlns:xlink="http://www.w3.org/1999/xlink" xml:space="preserve" xmlns:serif="http://www.serif.com/" fill="none" stroke="currentColor" stroke-width="0.3" stroke-linecap="round" stroke-linejoin="round">
<path d="M8.397,5.612C9.297,5.692 10.219,5.887 11.079,6.269"/><path d="M5.075,10.158C5.875,10.047 6.847,9.962 7.866,10.011"/><path d="M8.288,10.039C8.754,10.078 9.226,10.149 9.692,10.259"/><path d="M10.603,10.533C10.725,10.578 10.845,10.627 10.965,10.679"/><path d="M5.052,11.719C5.85,11.609 6.816,11.526 7.827,11.575"/><path d="M8.249,11.604C8.315,11.609 8.38,11.615 8.446,11.622"/><path d="M9.201,11.73C9.792,11.839 10.38,12.007 10.942,12.254"/><path d="M5.014,13.282C5.812,13.172 6.778,13.09 7.789,13.14"/><path d="M8.633,13.214C9.397,13.311 10.167,13.498 10.893,13.817"/><path d="M4.975,14.844C5.774,14.735 6.74,14.653 7.75,14.704"/><path d="M8.786,14.805C9.487,14.91 10.189,15.092 10.855,15.385"/><path d="M5.165,7.154C5.963,7.044 6.929,6.962 7.94,7.012"/><path d="M8.362,7.041C9.261,7.12 10.183,7.313 11.044,7.691"/><path d="M5.13,8.589C5.928,8.48 6.893,8.398 7.904,8.448"/><path d="M8.326,8.477C9.226,8.555 10.148,8.748 11.009,9.126"/><path d="M12.352,5.165L12.282,9.511"/><path d="M12.271,10.208L12.159,17.168"/><path d="M3.354,16.675L2.553,17.423L2.828,5.155L3.784,4.16L3.354,16.675Z"/><path d="M20.666,5.459L21.328,6.705L21.216,18.854L20.782,17.953L20.666,5.459Z"/><path d="M8.993,16.498C6.716,16.093 4.4,16.483 3.354,16.675L3.784,4.16C5.325,3.866 9.52,3.048 12.352,5.165C14.106,4.151 16.572,4.018 20.666,5.459L20.782,17.953C18.558,17.178 16.744,16.896 15.267,16.955"/><path d="M15.122,19.104L1.733,18.111L2.109,5.354L2.828,5.155L2.553,17.423C2.703,17.378 7.27,17.907 12.067,18.256C13.024,18.326 13.991,18.377 14.934,18.422C14.853,18.566 14.859,18.75 14.964,18.891L15.122,19.104ZM16.833,18.51C18.577,18.591 20.129,18.677 21.216,18.854L21.328,6.705L22,6.82L21.882,19.605L17.399,19.273L16.833,18.51Z"/><path d="M15.951,12.101C15.951,12.098 15.952,12.096 15.952,12.094L16.018,11.798C16.024,11.23 15.776,10.948 15.679,10.848C14.338,10.399 14.437,9.671 13.668,9.147C14.661,9.148 16.123,9.828 15.907,10.9C15.892,10.973 16.029,11.106 16.092,11.457C16.222,10.857 16.346,10.256 16.467,9.668C16.424,9.369 16.235,9.001 16.102,8.732C15.995,8.86 15.965,9.063 15.827,9.124C15.685,9.188 15.626,9.043 15.598,8.935C15.571,8.942 15.326,9.005 15.266,8.841C15.195,8.643 15.33,8.541 15.393,8.467C15.368,8.455 15.161,8.354 15.215,8.174C15.269,7.996 15.426,8.029 15.584,7.989C15.58,7.925 15.566,7.846 15.616,7.795C15.669,7.742 15.734,7.777 15.799,7.789C15.866,7.801 15.883,7.778 15.925,7.733C16.006,7.645 16.143,7.809 16.18,7.957C16.226,8.147 16.19,8.231 16.176,8.313C16.436,8.123 16.46,8.401 16.445,8.466C16.409,8.621 16.153,8.683 16.149,8.685C16.283,8.897 16.426,9.162 16.515,9.432L16.731,8.37C16.737,8.13 16.695,7.934 16.629,7.749C16.503,7.703 16.259,7.512 16.231,7.492C16.209,7.476 16.031,7.348 16.093,7.182C16.171,6.974 16.13,6.917 16.277,6.895C16.336,6.886 16.421,6.756 16.488,6.809C16.952,7.174 16.625,7.347 16.7,7.745L16.695,7.751C16.734,7.845 16.778,7.955 16.794,8.064C16.867,7.705 16.939,7.355 17.01,7.019C16.99,7.029 16.969,7.042 16.946,7.06C16.561,6.682 16.274,6.384 16.715,6.257C16.734,6.083 16.68,6.045 16.831,5.955C16.846,5.902 16.847,5.814 16.9,5.774C16.933,5.75 16.971,5.746 17.009,5.734C17.078,5.53 17.083,5.494 17.222,5.509C17.271,5.455 17.351,5.315 17.449,5.349C17.534,5.379 17.536,5.463 17.553,5.538C17.774,5.658 17.712,5.724 17.622,5.977C17.691,6.032 17.735,6.079 17.701,6.175C17.641,6.345 17.785,6.379 17.715,6.499C17.633,6.641 17.803,6.675 17.628,6.828C17.37,7.053 17.255,7.01 17.144,6.999C17.089,7.249 17.035,7.505 16.981,7.766C17.052,7.69 17.134,7.624 17.199,7.569C17.203,7.51 17.225,7.43 17.271,7.324C17.299,7.263 17.412,7.048 17.72,7.029C17.722,7.029 18.027,7.084 17.704,7.339C17.761,7.381 17.856,7.417 17.832,7.502C17.828,7.513 17.274,7.871 17.205,7.643C17.11,7.731 17.023,7.828 16.944,7.946C16.844,8.431 16.744,8.931 16.645,9.434C16.789,9.26 16.962,9.102 17.128,8.969L17.105,8.899C17.084,8.832 17.089,8.786 17.168,8.766C17.239,8.748 16.879,8.504 17.05,8.292C17.221,8.081 17.36,8.327 17.383,8.359C17.489,7.909 17.796,8 17.818,8.261C17.917,8.249 18.015,8.236 18.092,8.314C18.17,8.391 18.166,8.465 18.121,8.555C18.145,8.62 18.181,8.678 18.141,8.742C18.109,8.795 18.051,8.814 17.996,8.832C18.139,9.243 17.824,9.373 17.6,9.169C17.59,9.192 17.498,9.407 17.328,9.34C17.217,9.298 17.2,9.211 17.153,9.051C16.948,9.24 16.714,9.468 16.595,9.688C16.476,10.29 16.358,10.897 16.238,11.492C16.381,11.284 16.539,11.107 16.59,10.996C16.915,10.289 17.458,10.257 18.181,10.318C17.657,10.56 17.701,11.154 16.612,11.2C16.562,11.238 16.337,11.472 16.189,11.736L16.106,12.142L16.056,12.378C16.056,12.38 16.056,12.382 16.055,12.384C16.024,12.288 15.989,12.193 15.951,12.101ZM16.259,13.493C16.504,13.148 16.949,12.523 17.441,11.842C17.352,11.434 17.449,11.109 17.597,10.943C17.544,11.178 17.485,11.465 17.555,11.684C18.02,11.042 18.515,10.366 18.916,9.836C18.863,9.769 18.842,9.654 18.853,9.576C18.869,9.462 18.931,9.393 19.017,9.325C18.985,9.314 18.743,9.234 18.66,9.096C18.628,9.043 18.697,8.997 18.691,8.937C18.686,8.886 18.574,8.699 18.827,8.636C18.887,8.622 18.951,8.639 19.006,8.66C19.098,8.694 19.157,8.781 19.215,8.854C19.187,8.776 19.107,8.633 19.251,8.457C19.397,8.279 19.562,8.311 19.577,8.324C19.634,8.374 19.675,8.473 19.701,8.541C19.724,8.601 19.733,8.66 19.742,8.723C20.148,8.419 20.509,8.906 20.13,9.165C20.159,9.205 20.363,9.421 20.265,9.631C20.242,9.68 20.066,9.887 19.791,9.594C19.812,9.63 19.912,9.758 19.854,9.899C19.793,10.047 19.578,10.035 19.458,9.746C19.442,9.756 19.18,9.96 18.995,9.892C18.679,10.323 18.314,10.838 17.957,11.347C18.25,11.162 18.708,10.998 18.937,10.979C18.865,10.915 18.773,10.823 18.845,10.726C18.908,10.643 18.995,10.672 19.074,10.707C19.096,10.646 19.114,10.58 19.151,10.526C19.305,10.306 19.432,10.461 19.487,10.459C19.556,10.456 19.734,10.415 19.75,10.706C19.808,10.719 19.866,10.725 19.921,10.748C20.209,10.87 20.064,10.98 20.091,11.039C20.131,11.125 20.34,11.277 20.018,11.431C20.027,11.584 20.089,11.689 19.993,11.748C19.9,11.805 19.812,11.773 19.724,11.724C19.696,11.767 19.568,12.112 19.274,11.961C19.249,11.949 19.235,11.922 19.213,11.909C19.196,11.898 18.992,11.903 18.92,11.766C18.873,11.677 18.882,11.594 18.927,11.508C18.887,11.461 18.838,11.416 18.854,11.35C18.882,11.235 18.933,11.144 18.961,11.077C18.737,11.028 18.277,11.278 17.78,11.601L17.631,11.816C17.753,11.774 17.882,11.761 17.939,11.733C18.255,11.579 18.484,11.758 18.76,12.035C18.485,11.942 18.348,12.183 17.895,11.818C17.863,11.815 17.709,11.828 17.583,11.885C17.047,12.658 16.583,13.341 16.412,13.593C16.481,13.566 16.53,13.547 16.553,13.523C17.722,12.297 18.803,12.594 19.911,13.175C18.892,13.672 17.872,14.384 16.649,13.64C16.564,13.658 16.425,13.684 16.262,13.774C16.264,13.68 16.263,13.586 16.259,13.493ZM15.108,15.414C15.184,15.157 15.259,14.894 15.332,14.626C15.361,14.123 15.17,13.843 15.079,13.701C13.335,13.252 13.112,11.769 12.692,10.468C14.185,10.953 15.393,11.649 15.27,13.687C15.264,13.772 15.379,13.931 15.439,14.225C15.482,14.061 15.525,13.896 15.566,13.729C15.564,13.909 15.548,14.091 15.516,14.274C15.445,14.687 15.304,15.07 15.108,15.414Z"/><path d="M18.618,21.644L17.923,22.158C17.731,22.3 17.46,22.26 17.318,22.068L14.964,18.891C14.822,18.699 14.862,18.428 15.054,18.286L15.748,17.771C15.94,17.629 16.211,17.67 16.353,17.861L18.708,21.039C18.85,21.231 18.809,21.502 18.618,21.644Z"/><path d="M14.17,17.306C13.354,17.776 12.376,17.976 11.377,17.804C9.104,17.414 7.575,15.252 7.965,12.979C8.355,10.706 10.517,9.176 12.79,9.566C15.064,9.956 16.593,12.119 16.203,14.392C16.051,15.279 15.629,16.053 15.036,16.643L15.828,17.712L14.952,18.362L14.17,17.306ZM12.672,10.253C10.778,9.928 8.976,11.202 8.651,13.097C8.326,14.991 9.6,16.793 11.495,17.118C13.389,17.443 15.191,16.169 15.516,14.274C15.841,12.38 14.567,10.578 12.672,10.253Z"/>
    </symbol>

    <symbol id="icon-book" width="100%" height="100%" viewBox="0 0 24 24" version="1.1" xmlns="http://www.w3.org/2000/svg" xmlns:xlink="http://www.w3.org/1999/xlink" xml:space="preserve" xmlns:serif="http://www.serif.com/" fill="none" stroke="currentColor" stroke-width="0.3" stroke-linecap="round" stroke-linejoin="round">
<path d="M16.304,6.961C15.436,7.829 14.55,8.728 13.657,9.637C14.192,9.472 14.768,9.38 15.292,9.332L15.339,9.155C15.387,8.986 15.461,8.897 15.653,8.965C15.824,9.025 15.409,8.028 16.054,7.822C16.696,7.617 16.648,8.316 16.652,8.415C17.486,7.627 17.997,8.234 17.686,8.805C17.908,8.914 18.129,9.021 18.184,9.288C18.239,9.554 18.131,9.701 17.914,9.827C17.876,9.994 17.87,10.163 17.701,10.243C17.562,10.308 17.417,10.268 17.277,10.23C17.013,11.277 16.184,11.118 15.999,10.388C15.946,10.423 15.462,10.741 15.2,10.372C15.03,10.134 15.11,9.931 15.232,9.534C14.551,9.646 13.755,9.801 13.208,10.094C12.142,11.18 11.069,12.275 10.01,13.345C10.59,13.109 11.156,12.958 11.414,12.797C13.051,11.776 14.22,12.45 15.635,13.562C14.22,13.347 13.501,14.639 11.182,13.249C11.027,13.261 10.243,13.439 9.574,13.785L8.849,14.511C7.562,15.798 6.307,17.027 5.12,18.133C5.705,17.924 6.186,17.851 6.577,17.842L6.535,17.829C6.535,17.829 9.081,16.83 12.024,15.711C12.398,14.744 13.041,14.203 13.573,14.06C13.142,14.475 12.63,14.988 12.476,15.539C14.314,14.842 16.262,14.115 17.816,13.566C17.797,13.355 17.91,13.087 18.039,12.94C18.227,12.726 18.451,12.667 18.722,12.643C18.67,12.577 18.279,12.081 18.294,11.683C18.3,11.53 18.506,11.528 18.575,11.396C18.634,11.284 18.656,10.741 19.268,10.958C19.41,11.008 19.519,11.133 19.605,11.25C19.749,11.445 19.753,11.708 19.775,11.937C19.822,11.737 19.851,11.333 20.39,11.164C20.935,10.993 21.233,11.284 21.246,11.332C21.297,11.514 21.246,11.774 21.207,11.952C21.173,12.108 21.112,12.242 21.045,12.385C22.3,12.307 22.384,13.808 21.245,13.828C21.252,13.951 21.38,14.678 20.891,14.979C20.777,15.049 20.129,15.237 19.959,14.255C19.953,14.359 19.986,14.762 19.674,14.974C19.345,15.198 18.916,14.878 19.061,14.117C19.014,14.117 18.194,14.181 17.903,13.79C16.66,14.251 15.202,14.819 13.769,15.389C14.629,15.404 15.8,15.689 16.301,15.963C16.239,15.73 16.174,15.413 16.455,15.313C16.698,15.226 16.84,15.404 16.956,15.586C17.085,15.489 17.211,15.376 17.362,15.315C17.981,15.067 18.034,15.564 18.149,15.633C18.297,15.722 18.721,15.879 18.358,16.504C18.46,16.609 18.573,16.702 18.655,16.826C19.087,17.469 18.636,17.499 18.612,17.659C18.577,17.892 18.803,18.491 17.925,18.372C17.736,18.7 17.719,19.004 17.441,18.995C17.171,18.986 17.032,18.8 16.916,18.579C16.799,18.628 16.065,19.17 15.661,18.456C15.626,18.396 15.634,18.323 15.606,18.264C15.584,18.218 15.157,17.951 15.193,17.568C15.217,17.32 15.349,17.162 15.559,17.044C15.542,16.892 15.5,16.732 15.623,16.618C15.839,16.416 16.068,16.299 16.217,16.197C15.821,15.79 14.527,15.682 13.057,15.673L12.455,15.915C12.764,15.996 13.049,16.144 13.206,16.165C14.071,16.276 14.3,16.957 14.496,17.908C14.052,17.341 13.439,17.653 12.998,16.28C12.937,16.231 12.598,16.047 12.26,15.993C10.096,16.864 8.205,17.647 7.507,17.937C7.685,17.973 7.812,18.002 7.895,17.983C11.987,17.035 13.821,19.126 15.326,21.839C12.538,21.48 9.453,21.566 7.933,18.356C7.457,18.169 6.296,17.665 4.242,18.94C3.977,19.18 3.716,19.413 3.46,19.638C3.15,19.953 2.77,20.283 2.301,20.623L2,20.249L2.047,20.219L2.023,20.181C2.629,19.677 3.242,19.15 3.86,18.605C4.605,17.602 4.591,16.762 4.597,16.342C1.596,13.035 3.154,9.66 4.058,6.389C6.49,9.429 8.045,12.518 5.011,16.573C4.884,16.743 4.904,17.229 4.629,17.92C6.124,16.575 7.638,15.138 9.137,13.678C9.922,12.511 9.793,11.588 9.729,11.248C7.562,8.491 8.76,7.118 7.88,4.982C9.937,6.338 12.04,9.74 10.131,11.667C10,11.8 10.103,12.261 9.755,13.074C10.842,12.007 11.918,10.933 12.969,9.878C13.289,9.199 13.399,8.18 13.489,7.441C13.094,7.561 12.755,7.94 12.385,7.879C12.003,7.817 12.08,7.437 12.168,7.175C12.104,7.153 11.509,6.948 11.61,6.527C11.732,6.02 12.15,5.993 12.381,5.925C12.346,5.867 12.054,5.375 12.412,5.077C12.767,4.781 13.048,5.065 13.43,5.195C13.508,5.057 13.587,4.874 13.76,4.838C13.942,4.8 14.029,4.961 14.147,5.074C14.269,5.19 14.335,5.166 14.484,5.129C14.773,5.057 14.834,5.584 14.707,5.942C14.545,6.397 14.355,6.522 14.213,6.674C15.013,6.635 14.682,7.244 14.563,7.357C14.277,7.629 13.662,7.41 13.652,7.408C13.641,8.03 13.574,8.773 13.391,9.454C14.034,8.808 14.667,8.171 15.287,7.548C15.625,7.059 15.807,6.596 15.922,6.123C15.723,5.857 15.478,5.127 15.448,5.049C15.424,4.986 15.229,4.476 15.583,4.218C16.03,3.893 16.021,3.718 16.357,3.873C16.491,3.936 16.843,3.782 16.91,3.984C17.375,5.372 16.462,5.284 16.074,6.212C16.068,6.215 16.062,6.217 16.056,6.218C16.009,6.464 15.948,6.752 15.834,6.999C16.475,6.355 17.101,5.73 17.707,5.131C17.652,5.123 17.589,5.121 17.516,5.127C17.234,3.819 17.046,2.81 18.134,3.148C18.41,2.814 18.35,2.662 18.786,2.681C18.889,2.59 19.01,2.411 19.175,2.401C19.277,2.395 19.36,2.437 19.454,2.466C19.876,2.136 19.936,2.069 20.202,2.289C20.378,2.245 20.735,2.062 20.891,2.268C21.027,2.446 20.917,2.622 20.851,2.802C21.145,3.351 20.925,3.403 20.394,3.803C20.464,4.012 20.49,4.171 20.289,4.324C19.932,4.593 20.185,4.859 19.876,5.013C19.513,5.195 19.819,5.497 19.247,5.576C18.406,5.691 18.225,5.444 18.011,5.271C17.557,5.715 17.096,6.171 16.628,6.637C16.878,6.576 17.14,6.552 17.348,6.528C17.437,6.41 17.592,6.274 17.832,6.116C17.973,6.028 18.498,5.737 19.163,6.117C19.168,6.12 19.725,6.65 18.708,6.74C18.768,6.904 18.917,7.106 18.751,7.25C18.729,7.269 17.092,7.255 17.261,6.688C16.944,6.741 16.629,6.824 16.304,6.961Z" />    
    </symbol>

    <symbol id="icon-archive" width="100%" height="100%" viewBox="0 0 24 24" version="1.1" xmlns="http://www.w3.org/2000/svg" xmlns:xlink="http://www.w3.org/1999/xlink" xml:space="preserve" xmlns:serif="http://www.serif.com/" fill="none" stroke="currentColor" stroke-width="0.3" stroke-linecap="round" stroke-linejoin="round">
        <path d="M20.828,7.64C21.488,7.72 22,8.283 22,8.964L22,20.39C22,21.126 21.403,21.723 20.667,21.723L3.333,21.723C2.597,21.723 2,21.126 2,20.39L2,8.964C2,8.304 2.481,7.755 3.111,7.649L3.111,10.686L6.444,13.575L17.556,13.575L20.183,11.298L20.828,7.64Z"/><path d="M13.335,16.645C12.9,17.141 11.661,18.155 10.791,18.578"/><path d="M8.942,19.592C9.482,19.302 9.535,19.338 9.753,19.398C9.977,19.948 10.931,20.436 11.923,19.983C11.763,19.698 11.008,18.943 9.753,19.398"/><path d="M8.334,19.867C9.678,19.295 9.682,19.117 9.664,18.912C9.266,18.471 9.241,17.4 10.081,16.703C10.268,16.972 10.619,17.98 9.664,18.912"/><path d="M11.163,18.376C11.866,17.761 11.762,17.49 11.844,17.342C11.446,16.901 11.422,15.83 12.261,15.133C12.448,15.401 12.799,16.41 11.844,17.342"/><path d="M9.395,19.366C11.177,18.196 11.955,18.228 12.115,18.173C12.48,18.642 13.531,18.853 14.363,18.148C14.132,17.917 13.2,17.395 12.115,18.173"/><path d="M13.335,16.646C13.256,16.057 13.839,15.159 14.925,15.057C14.928,15.384 14.65,16.415 13.335,16.646"/><path d="M22,9.723L22,20.39C22,21.126 21.403,21.723 20.667,21.723L3.333,21.723C2.597,21.723 2,21.126 2,20.39L2,9.723L6.444,13.575L17.556,13.575L22,9.723Z"/><path d="M9.335,8.947C9.457,9.661 10.024,11.296 10.58,12.153"/><path d="M9.388,13.575C9.166,13.45 8.956,13.266 8.782,13.012C9.072,12.811 10.075,12.441 10.943,13.37C10.953,13.381 11.033,13.463 11.108,13.569"/><path d="M11.347,13.498C11.271,13.269 11.353,13.146 11.419,13.046C12.021,12.797 12.632,11.728 12.254,10.611C11.937,10.79 11.064,11.634 11.419,13.046"/><path d="M10.354,11.765C10.054,10.798 10.297,10.575 10.304,10.385C10.907,10.136 11.517,9.068 11.139,7.95C10.822,8.129 9.95,8.974 10.304,10.385"/><path d="M11.384,13.575C10.425,11.569 9.715,11.224 9.602,11.091C9.013,11.383 7.945,11.079 7.577,9.957C7.914,9.838 9.045,9.771 9.602,11.091"/><path d="M9.334,8.947C9.73,8.393 9.694,7.198 8.766,6.559C8.583,6.888 8.27,8.066 9.334,8.947"/><path d="M17.556,13.575L21.719,21.208"/><path d="M6.444,13.575L2.281,21.208"/><path d="M5.3,12.583L5.3,6.403C5.983,6.403 6.537,5.849 6.537,5.166L17.463,5.166C17.463,5.849 18.017,6.403 18.7,6.403L18.7,12.583L17.556,13.575L6.444,13.575L5.3,12.583Z"/><path d="M4.222,11.649L4.222,4.464C4.222,4.178 4.455,3.945 4.741,3.945L19.259,3.945C19.545,3.945 19.778,4.178 19.778,4.464L19.778,11.649L17.556,13.575L6.444,13.575L4.222,11.649Z"/><path d="M3.111,10.686L3.111,4.094C3.111,3.807 3.343,3.575 3.63,3.575L18.148,3.575C18.383,3.575 18.581,3.731 18.645,3.945L4.741,3.945C4.455,3.945 4.222,4.178 4.222,4.464L4.222,11.649L3.111,10.686Z"/><path d="M5.749,3.575L5.903,2.705C5.952,2.424 6.222,2.235 6.503,2.285L13.821,3.575L5.749,3.575ZM19.778,4.625L20.801,4.806C21.083,4.856 21.272,5.125 21.222,5.407L20.183,11.298L19.778,11.649L19.778,4.625Z"/><path d="M16.815,12.094L13.806,12.094"/><path d="M16.815,9.871L12.37,9.871"/><path d="M16.815,8.39L12.37,8.39"/>
    </symbol>

    <symbol id="icon-label" width="100%" height="100%" viewBox="0 0 24 24" version="1.1" xmlns="http://www.w3.org/2000/svg" xmlns:xlink="http://www.w3.org/1999/xlink" xml:space="preserve" xmlns:serif="http://www.serif.com/" fill="none" stroke="currentColor" stroke-width="0.3" stroke-linecap="round" stroke-linejoin="round">
        <path d="M14.378,10.61C14.432,11.323 14.277,13.053 13.945,14.049"/><path d="M19.027,5.87L19.027,19.045C19.027,19.449 18.699,19.777 18.295,19.777L3.21,19.777C2.806,19.777 2.478,19.449 2.478,19.045L2.478,5.87C2.478,5.466 2.806,5.138 3.21,5.138L18.295,5.138C18.699,5.138 19.027,5.466 19.027,5.87Z"/><path d="M17.78,7.621L17.78,17.295C17.113,17.295 16.571,17.837 16.571,18.504L4.987,18.504C4.987,17.837 4.445,17.295 3.778,17.295L3.778,7.621C4.445,7.621 4.987,7.079 4.987,6.411L16.571,6.411C16.571,7.079 17.113,7.621 17.78,7.621Z"/><path d="M2.478,16.587C2.148,16.465 1.944,16.118 2.013,15.761L2.478,13.36L2.478,16.587ZM4.07,5.138L4.518,2.826C4.595,2.43 4.979,2.17 5.376,2.247L20.185,5.114C20.582,5.191 20.841,5.575 20.765,5.972L19.027,14.948L19.027,5.87C19.027,5.466 18.699,5.138 18.295,5.138L4.07,5.138Z"/><path d="M5.367,5.138L5.447,4.724C6.068,4.844 6.669,4.438 6.79,3.817L13.613,5.138L5.367,5.138ZM19.027,7.34C19.081,7.359 19.136,7.375 19.194,7.386L19.027,8.251L19.027,7.34Z"/><path d="M20.506,7.307L21.445,7.542C21.837,7.64 22.076,8.037 21.978,8.429L18.786,21.212C18.688,21.604 18.291,21.843 17.899,21.745L10.02,19.777L18.295,19.777C18.699,19.777 19.027,19.449 19.027,19.045L19.027,14.948L20.506,7.307Z"/><path d="M20.053,9.646C20.14,9.694 20.234,9.732 20.334,9.757L19.027,14.994L19.027,14.948L20.053,9.646Z"/><path d="M5.024,9.594L11.389,9.594"/><path d="M5.024,11.503L11.389,11.503"/><path d="M5.024,15.322L11.389,15.322"/><path d="M5.024,13.412L11.389,13.412"/><path d="M13.327,16.251C13.513,15.612 13.58,15.598 13.792,15.475C14.389,15.719 15.491,15.35 15.893,14.237C15.55,14.145 14.392,14.158 13.792,15.475"/><path d="M13.079,16.931C13.656,15.454 13.521,15.317 13.348,15.176C12.704,15.149 11.856,14.355 11.952,13.176C12.303,13.235 13.351,13.728 13.348,15.176"/><path d="M14.07,13.606C14.128,12.596 13.838,12.47 13.786,12.294C13.142,12.267 12.293,11.474 12.39,10.294C12.74,10.353 13.788,10.846 13.786,12.294"/><path d="M13.496,15.728C13.942,13.459 14.557,12.88 14.636,12.715C15.276,12.787 16.237,12.134 16.323,10.954C15.968,10.958 14.857,11.284 14.636,12.715"/><path d="M14.378,10.61C13.862,10.225 13.608,9.091 14.353,8.171C14.609,8.417 15.197,9.416 14.378,10.61"/>
    </symbol>
</svg>